<svg xmlns="http://www.w3.org/2000/svg" viewBox="0 0 600 600" width="600" height="600" id="zdog-svg" stroke-width="0" stroke="0067C0" fill="0067C0">
    <defs>
      <filter id="shadow">
        <feOffset dx="0" dy="0"></feOffset>
        <feGaussianBlur stdDeviation="10" result="offset-blur"></feGaussianBlur>
        <feComposite operator="out" in="SourceGraphic" in2="offset-blur" result="inverse"></feComposite>
        <feFlood flood-color="#000000" flood-opacity="0.8" result="color"></feFlood>
        <feComposite operator="in" in="color" in2="inverse" result="shadow"></feComposite>
        <feComposite operator="over" in="shadow" in2="SourceGraphic"></feComposite>
      </filter>
      <filter id="hue">
        <feOffset dx="600" dy="-600"></feOffset>
        <feGaussianBlur stdDeviation="10" result="offset-blur"></feGaussianBlur>
        <feComposite operator="out" in="SourceGraphic" in2="offset-blur" result="inverse"></feComposite>
        <feFlood flood-color="#FFFFFF" flood-opacity=".7" result="color"></feFlood>
        <feComposite operator="in" in="color" in2="inverse" result="shadow"></feComposite>
        <feComposite operator="over" in="shadow" in2="SourceGraphic"></feComposite>
      </filter>
      <linearGradient id="Gradient1" x1="1" x2="1" y1="0" y2="0.6" spreadMethod="pad">
        <stop offset="0%" stop-color="#003d73"></stop>
        <stop offset="100%" stop-color="#0067C0"></stop>
      </linearGradient>
    </defs>
  <rect fill="#0067C0" x="20" y="20" width="560" height="560" rx="100" filter="url(#hue)" transform="scale(1,0.9) translate(0,35)"></rect><path d=" M190 67.5 h75 q55 0 55 55 v75 q0 55 55 55 h45 q55 0 55 55 v45 q0 55 -55 55 h-45 q-55 0 -55 55 v15 q0 55 -55 55 h-15 q-55 0 -55 -55 v-15 q0 -55 55 -55 h15 q55 0 55 -55 v-45 q0 -55 -55 -55 h-75 q-55 0 -55 -55 v-75 q0 -55 55 -55 z" filter="url(#shadow)" transform="rotate(90) translate(0,-600)" fill="url(#Gradient1)"></path></svg>