<svg xmlns="http://www.w3.org/2000/svg" viewBox="0 0 576 512" style="border:1px solid; width: 576px; height: 512px;">
  <path d="
M432 512c79.5 0 144-64.5 144-144s-64.5-144-144-144s-144 64.5-144 144s64.5 144 144 144zm0-48c-13.3 0-24-10.7-24-24s10.7-24 24-24s24 10.7 24 24s-10.7 24-24 24zm0-192c8.8 0 16 7.2 16 16v80c0 8.8-7.2 16-16 16s-16-7.2-16-16V288c0-8.8 7.2-16 16-16z
" transform="translate(-330,-270) scale(1.3,1.3)" />
  <path d="M30 0 Q0 0 0 30 V200 H80 V30 Q80 0 50 0 z" transform="translate(520,440) rotate(135)" />
</svg>