<svg xmlns="http://www.w3.org/2000/svg" viewBox="0 0 512 512">
  <path d="
M 0 255
A 255 255
0 1 1
255 511

A 25 25
0 1 1
255 461

A 205 205
0 1 0
50 255

A 25 25
0 1 1
0 255

z
" transform="rotate(30,255,255)"/>
<path d="
M 0 255

H 130

A 25 25
0 1 1
130 305

H30

Q 0 305 0 275

V 175

A 25 25
0 1 1
50 175

V 255

z
" transform="translate(12,-115)"/>
<path d="
M 230 130

A 25 25
0 1 1
280 130

V 266.5

H 230

z
" />
<path d="
M 230 130

A 25 25
0 1 1
280 130

V 266.5

H 230

z
" transform="rotate(130,255,255)" />
</svg>
