<svg version="1.1" xmlns="http://www.w3.org/2000/svg" width="900" height="900" viewBox="0 0 900 900">
  <path d="
  M170 30 H730 q140 0 140 140 V730 q0 140 -140 140 H170 q-140 0 -140 -140 V170 q0 -140 140 -140 z
  v70 q-70 0 -70 70 V730 q0 70 70 70 H730 q70 0 70 -70 V170 q0 -70 -70 -70 H170
  " />
  <rect x="185" y="230" width="155" height="160" rx="60" ry="60" />
  <rect x="395" y="270" width="335" height="80" rx="40" ry="40" />
  <rect x="185" y="510" width="155" height="160" rx="60" ry="60" />
  <rect x="395" y="550" width="335" height="80" rx="40" ry="40" />
</svg>
