<!-- Generated by IcoMoon.io -->
<svg version="1.1" xmlns="http://www.w3.org/2000/svg" width="1024" height="1024" viewBox="0 0 1024 1024">
<title></title>
<g id="icomoon-ignore">
</g>
<path fill="#000" d="
M176 96
c26.6 0 48 21.5 48 48
v96c0 26.6-21.4 48-48 48
h-96
c-26.5 0-48-21.4-48-48
v-96
c0-26.5 21.5-48 48-48
h96
z

M32 464
c0-26.6 21.5-48 48-48
h96c26.6 0 48 21.4 48 48
v96
c0 26.6-21.4 48-48 48h-96
c-26.5 0-48-21.4-48-48
v-96
z

M176 736
c26.6 0 48 21.4 48 48
v96
c0 26.6-21.4 48-48 48
h-96c-26.5 0-48-21.4-48-48
v-96c0-26.6 21.5-48 48-48
h96
z
"></path>
<path d="
M960 128
c35.4 0 64 28.66 64 64 0 35.4-28.6 64-64 64
h-576
c-35.4 0-64-28.6-64-64 0-35.34 28.6-64 64-64
h576
z
" transform="scale(1,0.7) translate(0,70)"/>
<path d="
M960 448
c35.4 0 64 28.6 64 64
s-28.6 64-64 64
h-576c-35.4 0-64-28.6-64-64
s28.6-64 64-64h576
z
" transform="scale(1,0.7) translate(0,210)" />
<path d="
M960 768
c35.4 0 64 28.6 64 64
s-28.6 64-64 64
h-576
c-35.4 0-64-28.6-64-64
s28.6-64 64-64
h576
z
" transform="scale(1,0.7) translate(0,350)" />
</svg>
