<svg xmlns="http://www.w3.org/2000/svg" viewBox="0 0 512 512">
  <path d="
M30 402
V110
Q30 60 80 60
H170
Q220 60 220 110
V130
Q220 160 250 160
H482
V402
Q482 452 432 452
H80
Q30 452 30 402
H70
Q70 412 80 412
H432
Q442 412 442 402
V200
H250
Q180 200 180 140
V110
Q180 100 170 100
H80
Q70 100 70 110
V402
z
M170 60
H432
Q482 60 482 110
V160
H442
V110
Q442 100 432 100
H210
z
" />
  <path d="
M175 175C184.4 165.7 199.6 165.7 208.1 175L255.1 222.1L303 175C312.4 165.7 327.6 165.7 336.1 175C346.3 184.4 346.3 199.6 336.1 208.1L289.9 255.1L336.1 303C346.3 312.4 346.3 327.6 336.1 336.1C327.6 346.3 312.4 346.3 303 336.1L255.1 289.9L208.1 336.1C199.6 346.3 184.4 346.3 175 336.1C165.7 327.6 165.7 312.4 175 303L222.1 255.1L175 208.1C165.7 199.6 165.7 184.4 175 175V175z
" transform="translate(256, 70) scale(0.65, 0.65) rotate(45)" />
</svg>