<svg xmlns="http://www.w3.org/2000/svg" width="512" height="512" viewBox="0 0 512 512">
  <path d="
M0 360
H10
Q60 360 60 310
V200
Q60 110 150 110
H362
Q452 110 452 200
V310
Q452 360 502 360
H512
V400
H502
Q412 400 412 310
V200
Q412 150 362 150
H150
Q100 150 100 200
V310
Q100 400 10 400
H0
z
"/>
<path d="
M175 175C184.4 165.7 199.6 165.7 208.1 175L255.1 222.1L303 175C312.4 165.7 327.6 165.7 336.1 175C346.3 184.4 346.3 199.6 336.1 208.1L289.9 255.1L336.1 303C346.3 312.4 346.3 327.6 336.1 336.1C327.6 346.3 312.4 346.3 303 336.1L255.1 289.9L208.1 336.1C199.6 346.3 184.4 346.3 175 336.1C165.7 327.6 165.7 312.4 175 303L222.1 255.1L175 208.1C165.7 199.6 165.7 184.4 175 175V175z
" 
transform="translate(256, 25) scale(0.7, 0.7) rotate(45)" />
</svg>
