<svg xmlns="http://www.w3.org/2000/svg" viewBox="0 0 512 512">
  <path
    d="
M30 382
V130
Q30 60 100 60
H150
Q220 60 220 130
V150
Q220 160 230 160
H482
V382
Q482 452 412 452
H100
Q30 452 30 382
H70
Q70 412 100 412
H412
Q442 412 442 382
V200
H230
Q180 200 180 160
V130
Q180 100 150 100
H100
Q70 100 70 130
V402
z
M150 60
H412
Q482 60 482 130
V160
H442
V130
Q442 100 412 100
H210
z
" />
  <path
    d="M512 313q43 0 72.5-30t29.5-73q0-42-29.5-69t-72.5-27-72.5 30-29.5 72q0 43 29.5 70t72.5 27zM512 410q-43 0-72.5 29.5t-29.5 72.5 29.5 72.5 72.5 29.5 72.5-29.5 29.5-72.5-29.5-72.5-72.5-29.5zM512 711q-43 0-72.5 30t-29.5 73q0 42 29.5 69t72.5 27 72.5-30 29.5-72q0-43-29.5-70t-72.5-27z"
    transform="scale(.3,.3) rotate(90) translate(480,-1370)"></path>
</svg>