<svg xmlns="http://www.w3.org/2000/svg" viewBox="0 0 512 512">
  <path
    d="
M30 230
V130
Q30 60 100 60
H150
Q220 60 220 130
V150
Q220 160 230 160
H482
V382
Q482 452 412 452
H260
L260 412

H412
Q442 412 442 382
V200
H230
Q180 200 180 160
V130
Q180 100 150 100
H100
Q70 100 70 130
V230
z
M150 60
H412
Q482 60 482 130
V160
H442
V130
Q442 100 412 100
H210
z
" />
  <path
    d="
M14 296 a 16 16 0 0 1 32 -32 l180 180 a 16 16 0 0 1 -32 32 z
M226 296 l-180 180 a 16 16 0 0 1 -32 -32 l180 -180 a 16 16 0 0 1 32 32 z
" />
</svg>
