<svg xmlns="http://www.w3.org/2000/svg" width="512" height="512" viewBox="0 0 512 512">
  <path d="
M0 360
H10
Q60 360 60 310
V200
Q60 110 150 110
H362
Q452 110 452 200
V310
Q452 360 502 360
H512
V400
H502
Q412 400 412 310
V200
Q412 150 362 150
H150
Q100 150 100 200
V310
Q100 400 10 400
H0
z
"/>
<path d="
M200 200
A75 75 0 1 1 350 200
A75 75 0 1 1 200 200
h30
A45 45 0 1 0 320 200
A45 45 0 1 0 230 200 z
"
transform="translate(-40,60)"
/>
<path d="M0 0 h30 v100 h-30 z" transform="translate(350,350) rotate(135)" />
</svg>
