<svg width="128" height="128" viewBox="0 0 128 128" stroke-linejoin="round" stroke-linecap="round" fill="none" xmlns="http://www.w3.org/2000/svg" style="border: 1px solid #ccc;">
  <path fill="#000000" d="
M5 13
H122
Q127 13 127 18
V110
Q127 115 122 115
H4
Q0 115 0 110
V18
Q0 13 5 13
M10 23
V105
H117
V23

M30 40
Q25 40 25 45
V50
Q25 55 30 55
H35
Q40 55 40 50
V45
Q40 40 35 40
z

M30 72
Q25 72 25 77
V82
Q25 87 30 87
H35
Q40 87 40 82
V77
Q40 72 35 72
z

M43 93
H55
L85 35
H73
z

M70 93
H82
L112 35
H100
z
" />
</svg>
